<?xml version="1.0" encoding="UTF-8"?>
<svg xmlns="http://www.w3.org/2000/svg" viewBox="0 0 800 600">
  <defs>
    <linearGradient id="grad1" x1="0%" y1="0%" x2="100%" y2="100%">
      <stop offset="0%" style="stop-color:#ffffff;stop-opacity:0.1" />
      <stop offset="100%" style="stop-color:#ffffff;stop-opacity:0.3" />
    </linearGradient>
  </defs>
  <rect width="800" height="600" fill="url(#grad1)" />
  <g transform="translate(400,300)">
    <path d="M0,-200 C150,-200 150,200 0,200 C-150,200 -150,-200 0,-200 Z" fill="none" stroke="#ffffff" stroke-width="2" opacity="0.5" />
    <path d="M0,-150 C100,-150 100,150 0,150 C-100,150 -100,-150 0,-150 Z" fill="none" stroke="#ffffff" stroke-width="2" opacity="0.6" />
    <path d="M0,-100 C50,-100 50,100 0,100 C-50,100 -50,-100 0,-100 Z" fill="none" stroke="#ffffff" stroke-width="2" opacity="0.7" />
    <circle cx="0" cy="0" r="50" fill="none" stroke="#ffffff" stroke-width="2" opacity="0.8" />
    <circle cx="0" cy="0" r="25" fill="none" stroke="#ffffff" stroke-width="2" opacity="0.9" />
    <circle cx="0" cy="0" r="10" fill="#ffffff" opacity="1" />
  </g>
  <text x="400" y="500" text-anchor="middle" fill="#ffffff" font-size="24" opacity="0.9">HỆ THỐNG HỖ TRỢ HỌC TẬP</text>
</svg> 